HIERARCHY
ROOT Hips
{
  OFFSET 13.9192 87.0099 7.45665
  CHANNELS 6 Xposition Yposition Zposition Zrotation Xrotation Yrotation
  JOINT RightUpLeg
  {
    OFFSET -9.25892 -1.51126 0.0103963
    CHANNELS 3 Zrotation Xrotation Yrotation
    JOINT RightLeg
    {
      OFFSET -0.0493687 -41.9019 0.103893
      CHANNELS 3 Zrotation Xrotation Yrotation
      JOINT RightFoot
      {
        OFFSET -1.32222 -41.6903 -0.651221
        CHANNELS 3 Zrotation Xrotation Yrotation
        End Site
        {
          OFFSET 0 -7.69 17.5
        }
      }
    }
  }
  JOINT LeftUpLeg
  {
    OFFSET 9.27814 -1.57439 0.0532125
    CHANNELS 3 Zrotation Xrotation Yrotation
    JOINT LeftLeg
    {
      OFFSET 0.0812204 -41.881 0.0464493
      CHANNELS 3 Zrotation Xrotation Yrotation
      JOINT LeftFoot
      {
        OFFSET -0.0110097 -42.3775 0.673629
        CHANNELS 3 Zrotation Xrotation Yrotation
        End Site
        {
          OFFSET 0 -7.69 17.5
        }
      }
    }
  }
  JOINT Spine
  {
    OFFSET 0.0235844 14.3019 0.0112981
    CHANNELS 3 Zrotation Xrotation Yrotation
    JOINT Spine1
    {
      OFFSET 0.0175769 9.71285 0.00895779
      CHANNELS 3 Zrotation Xrotation Yrotation
      JOINT Spine2
      {
        OFFSET 0.0285364 10.1117 0.00103808
        CHANNELS 3 Zrotation Xrotation Yrotation
        JOINT Spine3
        {
          OFFSET 0.0259409 9.72657 0.0104237
          CHANNELS 3 Zrotation Xrotation Yrotation
          JOINT Neck
          {
            OFFSET -0.0111787 10.3773 0.0255796
            CHANNELS 3 Zrotation Xrotation Yrotation
            JOINT Head
            {
              OFFSET -0.00267722 9.48908 0.0510269
              CHANNELS 3 Zrotation Xrotation Yrotation
              End Site
              {
                OFFSET 0 15.95 0
              }
            }
          }
          JOINT RightShoulder
          {
            OFFSET -3.1909 6.94591 0.0199124
            CHANNELS 3 Zrotation Xrotation Yrotation
            JOINT RightArm
            {
              OFFSET -12.7524 0.0197095 0.0110528
              CHANNELS 3 Zrotation Xrotation Yrotation
              JOINT RightForeArm
              {
                OFFSET -26.4891 -0.0606575 0.0254635
                CHANNELS 3 Zrotation Xrotation Yrotation
                JOINT RightHand
                {
                  OFFSET -26.017 -0.0465962 -0.00264686
                  CHANNELS 3 Zrotation Xrotation Yrotation
                  JOINT RightHandThumb1
                  {
                    OFFSET -2.48905 0.190105 3.12053
                    CHANNELS 3 Zrotation Xrotation Yrotation
                    JOINT RightHandThumb2
                    {
                      OFFSET -3.68274 0 0
                      CHANNELS 3 Zrotation Xrotation Yrotation
                      JOINT RightHandThumb3
                      {
                        OFFSET -2.55832 0 0
                        CHANNELS 3 Zrotation Xrotation Yrotation
                        End Site
                        {
                          OFFSET -2.194 0 0
                        }
                      }
                    }
                  }
                  JOINT RightInHandIndex
                  {
                    OFFSET -3.22368 0.508421 1.97842
                    CHANNELS 3 Zrotation Xrotation Yrotation
                    JOINT RightHandIndex1
                    {
                      OFFSET -5.21684 -0.091368 0.999158
                      CHANNELS 3 Zrotation Xrotation Yrotation
                      JOINT RightHandIndex2
                      {
                        OFFSET -3.61937 0 0
                        CHANNELS 3 Zrotation Xrotation Yrotation
                        JOINT RightHandIndex3
                        {
                          OFFSET -2.0521 0 0
                          CHANNELS 3 Zrotation Xrotation Yrotation
                          End Site
                          {
                            OFFSET -1.805 0 0
                          }
                        }
                      }
                    }
                  }
                  JOINT RightInHandMiddle
                  {
                    OFFSET -3.38211 0.517263 0.756737
                    CHANNELS 3 Zrotation Xrotation Yrotation
                    JOINT RightHandMiddle1
                    {
                      OFFSET -5.17411 -0.084 0.313895
                      CHANNELS 3 Zrotation Xrotation Yrotation
                      JOINT RightHandMiddle2
                      {
                        OFFSET -3.94947 0 0
                        CHANNELS 3 Zrotation Xrotation Yrotation
                        JOINT RightHandMiddle3
                        {
                          OFFSET -2.47579 0 0
                          CHANNELS 3 Zrotation Xrotation Yrotation
                          End Site
                          {
                            OFFSET -1.975 0 0
                          }
                        }
                      }
                    }
                  }
                  JOINT RightInHandRing
                  {
                    OFFSET -3.36516 0.537895 -0.128947
                    CHANNELS 3 Zrotation Xrotation Yrotation
                    JOINT RightHandRing1
                    {
                      OFFSET -4.63474 -0.022105 -0.478947
                      CHANNELS 3 Zrotation Xrotation Yrotation
                      JOINT RightHandRing2
                      {
                        OFFSET -3.44238 0 0
                        CHANNELS 3 Zrotation Xrotation Yrotation
                        JOINT RightHandRing3
                        {
                          OFFSET -2.3881 0 0
                          CHANNELS 3 Zrotation Xrotation Yrotation
                          End Site
                          {
                            OFFSET -1.857 0 0
                          }
                        }
                      }
                    }
                  }
                  JOINT RightInHandPinky
                  {
                    OFFSET -3.16105 0.469368 -1.20179
                    CHANNELS 3 Zrotation Xrotation Yrotation
                    JOINT RightHandPinky1
                    {
                      OFFSET -4.14105 -0.022105 -1.09053
                      CHANNELS 3 Zrotation Xrotation Yrotation
                      JOINT RightHandPinky2
                      {
                        OFFSET -2.75653 0 0
                        CHANNELS 3 Zrotation Xrotation Yrotation
                        JOINT RightHandPinky3
                        {
                          OFFSET -1.74189 0 0
                          CHANNELS 3 Zrotation Xrotation Yrotation
                          End Site
                          {
                            OFFSET -1.645 0 0
                          }
                        }
                      }
                    }
                  }
                }
              }
            }
          }
          JOINT LeftShoulder
          {
            OFFSET 3.2161 6.92611 -0.00186679
            CHANNELS 3 Zrotation Xrotation Yrotation
            JOINT LeftArm
            {
              OFFSET 12.7484 -0.0283569 -0.0302446
              CHANNELS 3 Zrotation Xrotation Yrotation
              JOINT LeftForeArm
              {
                OFFSET 26.4766 -0.0880322 -0.0033192
                CHANNELS 3 Zrotation Xrotation Yrotation
                JOINT LeftHand
                {
                  OFFSET 26.0079 -0.0456134 -0.0735001
                  CHANNELS 3 Zrotation Xrotation Yrotation
                  JOINT LeftHandThumb1
                  {
                    OFFSET 2.48905 0.190105 3.12053
                    CHANNELS 3 Zrotation Xrotation Yrotation
                    JOINT LeftHandThumb2
                    {
                      OFFSET 3.68274 0 0
                      CHANNELS 3 Zrotation Xrotation Yrotation
                      JOINT LeftHandThumb3
                      {
                        OFFSET 2.55832 0 0
                        CHANNELS 3 Zrotation Xrotation Yrotation
                        End Site
                        {
                          OFFSET 2.194 0 0
                        }
                      }
                    }
                  }
                  JOINT LeftInHandIndex
                  {
                    OFFSET 3.22368 0.508421 1.97842
                    CHANNELS 3 Zrotation Xrotation Yrotation
                    JOINT LeftHandIndex1
                    {
                      OFFSET 5.21684 -0.091368 0.999158
                      CHANNELS 3 Zrotation Xrotation Yrotation
                      JOINT LeftHandIndex2
                      {
                        OFFSET 3.61937 0 0
                        CHANNELS 3 Zrotation Xrotation Yrotation
                        JOINT LeftHandIndex3
                        {
                          OFFSET 2.0521 0 0
                          CHANNELS 3 Zrotation Xrotation Yrotation
                          End Site
                          {
                            OFFSET 1.805 0 0
                          }
                        }
                      }
                    }
                  }
                  JOINT LeftInHandMiddle
                  {
                    OFFSET 3.38211 0.517263 0.756737
                    CHANNELS 3 Zrotation Xrotation Yrotation
                    JOINT LeftHandMiddle1
                    {
                      OFFSET 5.17411 -0.084 0.313895
                      CHANNELS 3 Zrotation Xrotation Yrotation
                      JOINT LeftHandMiddle2
                      {
                        OFFSET 3.94947 0 0
                        CHANNELS 3 Zrotation Xrotation Yrotation
                        JOINT LeftHandMiddle3
                        {
                          OFFSET 2.47579 0 0
                          CHANNELS 3 Zrotation Xrotation Yrotation
                          End Site
                          {
                            OFFSET 1.975 0 0
                          }
                        }
                      }
                    }
                  }
                  JOINT LeftInHandRing
                  {
                    OFFSET 3.36516 0.537895 -0.128947
                    CHANNELS 3 Zrotation Xrotation Yrotation
                    JOINT LeftHandRing1
                    {
                      OFFSET 4.63474 -0.022105 -0.478947
                      CHANNELS 3 Zrotation Xrotation Yrotation
                      JOINT LeftHandRing2
                      {
                        OFFSET 3.44238 0 0
                        CHANNELS 3 Zrotation Xrotation Yrotation
                        JOINT LeftHandRing3
                        {
                          OFFSET 2.3881 0 0
                          CHANNELS 3 Zrotation Xrotation Yrotation
                          End Site
                          {
                            OFFSET 1.857 0 0
                          }
                        }
                      }
                    }
                  }
                  JOINT LeftInHandPinky
                  {
                    OFFSET 3.16105 0.469368 -1.20179
                    CHANNELS 3 Zrotation Xrotation Yrotation
                    JOINT LeftHandPinky1
                    {
                      OFFSET 4.14105 -0.022105 -1.09053
                      CHANNELS 3 Zrotation Xrotation Yrotation
                      JOINT LeftHandPinky2
                      {
                        OFFSET 2.75653 0 0
                        CHANNELS 3 Zrotation Xrotation Yrotation
                        JOINT LeftHandPinky3
                        {
                          OFFSET 1.74189 0 0
                          CHANNELS 3 Zrotation Xrotation Yrotation
                          End Site
                          {
                            OFFSET 1.645 0 0
                          }
                        }
                      }
                    }
                  }
                }
              }
            }
          }
        }
      }
    }
  }
}
MOTION
Frames: 3
Frame Time: 0.00833333
5.999615070569598174e+02 -4.111294522735257223e-02 -1.539313396909778309e-01 3.108838801674174493e-02 2.490724241895110325e-01 -2.492197492315082752e-01 -6.262591668679957646e-01 5.590125770660098192e-01 -7.562136161573806969e-01 3.885421133795428084e-01 1.429148037388644835e-02 -2.667893742185200034e-01 -7.071488627881658551e-02 -2.744884641180283524e-01 1.741744033129451197e-01 -4.071164947400193190e-01 6.081359757303259617e-01 -4.336286561556924601e-01 -5.037461956722774636e-02 -4.096745936357316931e-02 -1.549589996137298586e-01 -2.661262572120688674e-02 -7.983983455901308424e-02 6.890744050199715254e-02 -2.886743101901759756e-01 -1.831351238251707481e-01 -1.415676122216924293e+00 -1.013875840928219058e-01 -1.019718669878749706e-01 -3.877735378369432939e-01 -1.574825006788415638e-01 -1.450559288728524299e-01 -6.072940526756339663e-01 4.257737987606981245e-02 -5.047152920396007214e-02 1.263150161198789145e-01 -1.889598659259973945e-01 -1.533807879470564517e-01 1.730990126858693579e+00 9.712710129164097150e-01 -2.258331064502220875e-01 1.227781925241104188e+00 7.176862665745593617e-01 -8.114400869575496555e-01 3.682031877132965203e-01 -3.957811347560602488e+00 -3.054422037586447924e+00 -2.309565483342507441e+00 8.116607459259526092e-01 5.186672310172993683e+00 3.689542697530241888e+00 -1.961630442762575810e-01 2.837351575786193791e+00 -2.706223123964260679e+00 0.000000000000000000e+00 0.000000000000000000e+00 0.000000000000000000e+00 -8.637892449684200817e-15 -3.708543451477557260e-15 0.000000000000000000e+00 -2.039317655409185111e-15 -2.616437525549832130e-15 0.000000000000000000e+00 -5.280049791369699503e-15 3.832867669382168009e-15 -2.004544227799126250e-15 0.000000000000000000e+00 0.000000000000000000e+00 0.000000000000000000e+00 0.000000000000000000e+00 1.814055748274042266e-15 1.340372687693729127e-14 0.000000000000000000e+00 8.777066604261406173e-16 7.361947310739419183e-15 -5.280049791369699503e-15 3.832867669382168009e-15 -2.004544227799126250e-15 0.000000000000000000e+00 6.316538483556326327e-15 1.017263079868912819e-14 0.000000000000000000e+00 1.016376242376630010e-14 2.919447372916897821e-15 0.000000000000000000e+00 2.125140504386842837e-15 7.092680612100801079e-15 -5.280049791369699503e-15 3.832867669382168009e-15 -2.004544227799126250e-15 0.000000000000000000e+00 0.000000000000000000e+00 0.000000000000000000e+00 0.000000000000000000e+00 1.074766370750209060e-15 8.563724787658397525e-15 0.000000000000000000e+00 4.485230393010131145e-16 4.434748933286858307e-15 -5.280049791369699503e-15 3.832867669382168009e-15 -2.004544227799126250e-15 0.000000000000000000e+00 0.000000000000000000e+00 0.000000000000000000e+00 0.000000000000000000e+00 -2.028279393365846636e-15 1.990749945065964653e-14 0.000000000000000000e+00 1.375994005489859912e-15 1.489098550527062843e-14 9.845200592632357139e-01 -8.561961743474009179e-01 6.602432497634418418e-01 1.436246927519098548e+00 -2.085442535785376084e+00 -3.291364870073940629e+00 -7.193274662780197559e+00 2.102279576023261320e+00 -1.030558043231224374e+01 8.818110769882544275e+00 7.267985793846334808e+00 1.027049048313080171e+01 0.000000000000000000e+00 0.000000000000000000e+00 0.000000000000000000e+00 -1.526084694647931381e-14 -4.312133650017294251e-16 0.000000000000000000e+00 1.976416489118798230e-14 2.820172905676541017e-15 0.000000000000000000e+00 -5.859940567214081326e-17 -1.027237601402758124e-15 7.789957838762165683e-15 0.000000000000000000e+00 0.000000000000000000e+00 0.000000000000000000e+00 0.000000000000000000e+00 2.381155575971498998e-15 -1.479158761881114939e-14 0.000000000000000000e+00 5.255155989905933775e-15 1.901175253882363886e-15 -5.859940567214081326e-17 -1.027237601402758124e-15 7.789957838762165683e-15 0.000000000000000000e+00 -2.288907961957380374e-15 -8.470670836810008897e-15 0.000000000000000000e+00 4.405817755201928552e-15 2.295060428903595148e-17 0.000000000000000000e+00 -1.250839149642097883e-16 -1.399880367874791478e-15 -5.859940567214081326e-17 -1.027237601402758124e-15 7.789957838762165683e-15 0.000000000000000000e+00 0.000000000000000000e+00 0.000000000000000000e+00 0.000000000000000000e+00 -7.286177928569970284e-15 -6.937837481244264393e-15 0.000000000000000000e+00 -2.987121695210089833e-15 -1.243792568466722981e-15 -5.859940567214081326e-17 -1.027237601402758124e-15 7.789957838762165683e-15 0.000000000000000000e+00 0.000000000000000000e+00 0.000000000000000000e+00 0.000000000000000000e+00 3.780064487046815696e-15 -1.007543763457876555e-14 0.000000000000000000e+00 1.098266338972368988e-14 1.113875169792986913e-14
5.999536152363205019e+02 -3.910604691881443273e-02 -1.286270653832266575e-01 2.964155827024500534e-02 2.497554174647035330e-01 -2.123702644576307141e-01 -7.042484684367025238e-01 5.131973072435137562e-01 -8.312033447676758779e-01 4.115143671533741943e-01 1.131190457661934712e-02 -2.748976317605733577e-01 -7.349751121538111720e-02 -2.714544091128395231e-01 1.681815314534311490e-01 -4.590242848094260864e-01 5.447730845206698591e-01 -4.549476368077121080e-01 -5.487149420989958365e-03 -5.050329252650764822e-02 -1.791992022045209854e-01 -2.034163372697713953e-02 -6.021814960139494632e-02 6.276331774821733434e-02 -2.548417345382675836e-01 -1.596222226575139957e-01 -1.363930224905605559e+00 -9.225746099109741194e-02 -9.047182416312030129e-02 -3.723809177740784460e-01 -1.426991670539104196e-01 -1.302407969748622940e-01 -5.854228625023679689e-01 4.202546846735848163e-02 -5.092629633889095980e-02 1.205213088053692649e-01 -1.806831400303469115e-01 -1.440330926961070068e-01 1.607012247369167479e+00 9.571730416474375502e-01 -2.738676645542130195e-01 1.197570572463756866e+00 7.183490068947132601e-01 -7.904303698462621375e-01 5.474673468308206559e-01 -3.743292146611323368e+00 -3.162773617943311688e+00 -2.185579389840075937e+00 1.015976177028054650e+00 5.267281845029993192e+00 3.626131784185564477e+00 -2.279676309546747326e-01 2.962990231179542633e+00 -3.216500302339138972e+00 0.000000000000000000e+00 0.000000000000000000e+00 0.000000000000000000e+00 -8.308921076794010838e-15 -2.725847702483559674e-15 0.000000000000000000e+00 -1.938871799324505467e-15 -2.398034500949564116e-15 0.000000000000000000e+00 -4.858919938529420970e-15 3.186909001356609357e-15 -1.728913894368462033e-15 0.000000000000000000e+00 0.000000000000000000e+00 0.000000000000000000e+00 0.000000000000000000e+00 1.170828725971587881e-15 1.113073606371913741e-14 0.000000000000000000e+00 9.381036844032895638e-16 6.885980223876154719e-15 -4.858919938529420970e-15 3.186909001356609357e-15 -1.728913894368462033e-15 0.000000000000000000e+00 5.495125360702885186e-15 9.236319232658731349e-15 0.000000000000000000e+00 9.391200447694569736e-15 1.858643347068419280e-15 0.000000000000000000e+00 1.885651040220538681e-15 6.416081588186644284e-15 -4.858919938529420970e-15 3.186909001356609357e-15 -1.728913894368462033e-15 0.000000000000000000e+00 0.000000000000000000e+00 0.000000000000000000e+00 0.000000000000000000e+00 6.604273067901256238e-16 7.785467064689343823e-15 0.000000000000000000e+00 2.611549564328980995e-16 4.472553177388423802e-15 -4.858919938529420970e-15 3.186909001356609357e-15 -1.728913894368462033e-15 0.000000000000000000e+00 0.000000000000000000e+00 0.000000000000000000e+00 0.000000000000000000e+00 -2.282536301493694797e-15 1.740327241839938351e-14 0.000000000000000000e+00 1.148672791298641437e-15 1.327160044699206909e-14 8.970524972552418319e-01 -8.577063444188077757e-01 6.552528870609837242e-01 1.513459925912988169e+00 -2.090168845040661250e+00 -3.293062543175929502e+00 -7.722708049653803641e+00 2.052467069095856189e+00 -1.061610239491876051e+01 1.023988624343979659e+01 7.371393568404561059e+00 1.149755189554027268e+01 0.000000000000000000e+00 0.000000000000000000e+00 0.000000000000000000e+00 -1.514489084090989633e-14 -5.218110510227939593e-16 0.000000000000000000e+00 1.855815761548104722e-14 2.226234169172226880e-15 0.000000000000000000e+00 -1.723015051404104712e-16 -8.575246534561017141e-16 7.169082074652276178e-15 0.000000000000000000e+00 0.000000000000000000e+00 0.000000000000000000e+00 0.000000000000000000e+00 1.884745084120271199e-15 -1.471573993879806587e-14 0.000000000000000000e+00 4.496680840395156381e-15 3.020832592202696220e-15 -1.723015051404104712e-16 -8.575246534561017141e-16 7.169082074652276178e-15 0.000000000000000000e+00 -1.756461046636571384e-15 -9.278050928360997888e-15 0.000000000000000000e+00 4.422447080296656310e-15 -1.148765624718270483e-15 0.000000000000000000e+00 -2.020586792940347826e-16 -3.133597334374812907e-16 -1.723015051404104712e-16 -8.575246534561017141e-16 7.169082074652276178e-15 0.000000000000000000e+00 0.000000000000000000e+00 0.000000000000000000e+00 0.000000000000000000e+00 -6.635386952377365346e-15 -7.237377733191226046e-15 0.000000000000000000e+00 -2.854845139480146503e-15 -9.025993458052854166e-16 -1.723015051404104712e-16 -8.575246534561017141e-16 7.169082074652276178e-15 0.000000000000000000e+00 0.000000000000000000e+00 0.000000000000000000e+00 0.000000000000000000e+00 3.229708543296020254e-15 -9.719902214733770122e-15 0.000000000000000000e+00 1.017751116194113640e-14 9.945603122738996812e-15
5.999481680920422377e+02 -3.641490422646845304e-02 -1.045753611891471757e-01 2.861168500057469782e-02 2.484481913674939368e-01 -1.759504100138296334e-01 -7.693231608721644577e-01 4.690157631629566781e-01 -8.943619215562287339e-01 4.263236728190712976e-01 6.257269254337824438e-03 -2.775421329129932890e-01 -7.564053533457974765e-02 -2.637520692500718300e-01 1.601128824148517760e-01 -4.987398706843596541e-01 4.847862235330275826e-01 -4.695322723597890047e-01 3.172311829631266344e-02 -6.020057942638673554e-02 -1.948000702038311105e-01 -1.510017141828268183e-02 -4.053032149889472524e-02 5.307911403769376146e-02 -2.206101936373960348e-01 -1.375124129426429087e-01 -1.314164377815580043e+00 -8.297692000418502301e-02 -7.972792530615199769e-02 -3.574223702675413117e-01 -1.277258492719303418e-01 -1.168624605260218524e-01 -5.638905532501405915e-01 4.100136549019858107e-02 -5.091958845300786213e-02 1.144382702137426711e-01 -1.726649052710412802e-01 -1.353561561733067631e-01 1.492862356963619019e+00 9.344614314439460001e-01 -3.134149651815342774e-01 1.156219289602913536e+00 7.074154758771510343e-01 -7.597203553588621761e-01 7.083869239536516593e-01 -3.517549342208383667e+00 -3.230730506531625412e+00 -2.074913604012337487e+00 1.210163019832066977e+00 5.290350298197074252e+00 3.559412663631537743e+00 -2.274253247693473201e-01 3.055925467956414732e+00 -3.692202939103567783e+00 0.000000000000000000e+00 0.000000000000000000e+00 0.000000000000000000e+00 -7.725173793386736226e-15 -1.406076486504377275e-15 0.000000000000000000e+00 -1.557980548692001985e-15 -2.133226019141156563e-15 0.000000000000000000e+00 -4.362272112179963664e-15 2.275866023561158697e-15 -1.389676106037595102e-15 0.000000000000000000e+00 0.000000000000000000e+00 0.000000000000000000e+00 0.000000000000000000e+00 5.534870519418460863e-16 8.862242697076751002e-15 0.000000000000000000e+00 9.836543183128218956e-16 6.295011565994689134e-15 -4.362272112179963664e-15 2.275866023561158697e-15 -1.389676106037595102e-15 0.000000000000000000e+00 4.338826204718593035e-15 8.074396512569122214e-15 0.000000000000000000e+00 8.366426055739180488e-15 8.952073220160094735e-16 0.000000000000000000e+00 1.610571140280209359e-15 5.670366120549928927e-15 -4.362272112179963664e-15 2.275866023561158697e-15 -1.389676106037595102e-15 0.000000000000000000e+00 0.000000000000000000e+00 0.000000000000000000e+00 0.000000000000000000e+00 3.044710301599356392e-16 7.094158330298622894e-15 0.000000000000000000e+00 1.127723776992792535e-16 4.413243783093194617e-15 -4.362272112179963664e-15 2.275866023561158697e-15 -1.389676106037595102e-15 0.000000000000000000e+00 0.000000000000000000e+00 0.000000000000000000e+00 0.000000000000000000e+00 -2.387725074177908278e-15 1.463401627121922652e-14 0.000000000000000000e+00 9.234091115298013831e-16 1.153382133883043708e-14 8.135158275876284151e-01 -8.494429008008465010e-01 6.498419693398741481e-01 1.572163766511409211e+00 -2.077152656023186328e+00 -3.265730105158039631e+00 -8.090925350200933508e+00 1.987177531886894943e+00 -1.076406525535490566e+01 1.146247788586863159e+01 7.419285021211392994e+00 1.255526268994754169e+01 0.000000000000000000e+00 0.000000000000000000e+00 0.000000000000000000e+00 -1.547003716452860013e-14 -6.977513665445242744e-16 0.000000000000000000e+00 1.665130928537691510e-14 1.589871868342817804e-15 0.000000000000000000e+00 -2.173876676148653651e-16 -6.907375822299418507e-16 6.234028359761329690e-15 0.000000000000000000e+00 0.000000000000000000e+00 0.000000000000000000e+00 0.000000000000000000e+00 1.347112697868416206e-15 -1.406813004978471599e-14 0.000000000000000000e+00 3.435209280700347353e-15 4.213807679971021349e-15 -2.173876676148653651e-16 -6.907375822299418507e-16 6.234028359761329690e-15 0.000000000000000000e+00 -1.199843113920537547e-15 -9.854272611285258935e-15 0.000000000000000000e+00 4.285033270384999164e-15 -2.134249659326307247e-15 0.000000000000000000e+00 -2.614533995779757526e-16 8.554582545026783402e-16 -2.173876676148653651e-16 -6.907375822299418507e-16 6.234028359761329690e-15 0.000000000000000000e+00 0.000000000000000000e+00 0.000000000000000000e+00 0.000000000000000000e+00 -5.762783672423418828e-15 -7.288051812422047760e-15 0.000000000000000000e+00 -2.677935672997438209e-15 -3.607092369401452058e-16 -2.173876676148653651e-16 -6.907375822299418507e-16 6.234028359761329690e-15 0.000000000000000000e+00 0.000000000000000000e+00 0.000000000000000000e+00 0.000000000000000000e+00 2.632805351928470598e-15 -9.124207583261717041e-15 0.000000000000000000e+00 9.107881974445046252e-15 8.392138130378838883e-15
